<svg width="55" height="45" viewBox="0 0 55 45" fill="none" xmlns="http://www.w3.org/2000/svg">
<circle cx="49" cy="4" r="4" fill="#007FFF"/>
<path d="M7.595 22.15C7.595 23.3693 7.86367 24.413 8.401 25.281C8.959 26.1283 9.69267 26.7793 10.602 27.234C11.5113 27.668 12.5137 27.885 13.609 27.885C14.6423 27.885 15.5413 27.7507 16.306 27.482C17.0707 27.2133 17.7527 26.8723 18.352 26.459C18.9513 26.025 19.4783 25.5703 19.933 25.095V31.419C19.0857 32.039 18.1453 32.5557 17.112 32.969C16.0993 33.3617 14.7973 33.558 13.206 33.558C11.408 33.558 9.75467 33.2893 8.246 32.752C6.73733 32.2147 5.44567 31.4397 4.371 30.427C3.29633 29.4143 2.45933 28.2157 1.86 26.831C1.28133 25.4257 0.992 23.8653 0.992 22.15C0.992 20.4347 1.28133 18.8847 1.86 17.5C2.45933 16.0947 3.29633 14.8857 4.371 13.873C5.44567 12.8603 6.73733 12.0853 8.246 11.548C9.75467 11.0107 11.408 10.742 13.206 10.742C14.7973 10.742 16.0993 10.9383 17.112 11.331C18.1453 11.7237 19.0857 12.2403 19.933 12.881V19.205C19.4783 18.7297 18.9513 18.2853 18.352 17.872C17.7527 17.438 17.0707 17.0867 16.306 16.818C15.5413 16.5493 14.6423 16.415 13.609 16.415C12.5137 16.415 11.5113 16.6423 10.602 17.097C9.69267 17.531 8.959 18.182 8.401 19.05C7.86367 19.8973 7.595 20.9307 7.595 22.15ZM23.9344 11.3H29.9484V25.374C29.9484 26.366 30.2068 27.172 30.7234 27.792C31.2401 28.3913 32.0151 28.691 33.0484 28.691C34.1024 28.691 34.8878 28.3913 35.4044 27.792C35.9211 27.172 36.1794 26.366 36.1794 25.374V11.3H42.1934V25.87C42.1934 27.3373 41.9558 28.5877 41.4804 29.621C41.0051 30.6543 40.3438 31.5017 39.4964 32.163C38.6491 32.8037 37.6778 33.279 36.5824 33.589C35.4871 33.899 34.3091 34.054 33.0484 34.054C31.8084 34.054 30.6304 33.899 29.5144 33.589C28.4191 33.279 27.4478 32.8037 26.6004 32.163C25.7738 31.5017 25.1228 30.6543 24.6474 29.621C24.1721 28.5877 23.9344 27.3373 23.9344 25.87V11.3ZM46.4918 11.3H52.6298V33H46.4918V11.3Z" fill="white"/>
</svg>
