<svg width="198" height="40" viewBox="0 0 198 40" fill="none" xmlns="http://www.w3.org/2000/svg">
<path d="M6.448 25.87C6.448 26.552 6.603 27.141 6.913 27.637C7.223 28.133 7.64667 28.5153 8.184 28.784C8.72133 29.032 9.3 29.156 9.92 29.156C10.4367 29.156 10.943 29.0837 11.439 28.939C11.935 28.7943 12.3897 28.5773 12.803 28.288C13.237 27.978 13.5987 27.606 13.888 27.172V32.194C13.392 32.504 12.803 32.7727 12.121 33C11.439 33.2067 10.54 33.31 9.424 33.31C7.79133 33.31 6.33433 33.0103 5.053 32.411C3.77167 31.791 2.759 30.923 2.015 29.807C1.29167 28.691 0.93 27.3787 0.93 25.87C0.93 24.3407 1.29167 23.0283 2.015 21.933C2.759 20.817 3.77167 19.9593 5.053 19.36C6.33433 18.74 7.79133 18.43 9.424 18.43C10.54 18.43 11.439 18.5437 12.121 18.771C12.803 18.9777 13.392 19.2257 13.888 19.515V24.537C13.5987 24.0823 13.2163 23.7103 12.741 23.421C12.2863 23.1317 11.811 22.925 11.315 22.801C10.819 22.6563 10.354 22.584 9.92 22.584C9.3 22.584 8.72133 22.7287 8.184 23.018C7.64667 23.3073 7.223 23.7 6.913 24.196C6.603 24.692 6.448 25.25 6.448 25.87ZM22.7555 27.42C22.7555 28.164 22.8795 28.7427 23.1275 29.156C23.3755 29.5487 23.8405 29.745 24.5225 29.745C24.9771 29.745 25.3595 29.6623 25.6695 29.497C25.9795 29.3317 26.2171 29.0733 26.3825 28.722C26.5685 28.3707 26.6615 27.9367 26.6615 27.42V18.74H32.0245V33H26.6615V30.892C26.2481 31.636 25.6798 32.2353 24.9565 32.69C24.2538 33.124 23.3651 33.341 22.2905 33.341C20.4305 33.341 19.1078 32.876 18.3225 31.946C17.5371 30.9953 17.1445 29.6727 17.1445 27.978V18.74H22.7555V27.42ZM35.0576 13.563C35.0576 12.7363 35.3469 12.0647 35.9256 11.548C36.5249 11.0313 37.2379 10.773 38.0646 10.773C38.9119 10.773 39.6249 11.0313 40.2036 11.548C40.8029 12.0647 41.1026 12.7363 41.1026 13.563C41.1026 14.369 40.8029 15.0303 40.2036 15.547C39.6249 16.0637 38.9119 16.322 38.0646 16.322C37.2379 16.322 36.5249 16.0637 35.9256 15.547C35.3469 15.0303 35.0576 14.369 35.0576 13.563ZM35.4916 18.74H40.6376V33H35.4916V18.74ZM49.4804 39.82H44.1174V18.74H49.4804V39.82ZM61.0434 25.87C61.0434 27.5647 60.7127 28.9803 60.0514 30.117C59.4107 31.2537 58.584 32.1113 57.5714 32.69C56.5587 33.2687 55.484 33.558 54.3474 33.558C53.0867 33.558 52.0017 33.2377 51.0924 32.597C50.2037 31.9563 49.5217 31.0573 49.0464 29.9C48.5917 28.7427 48.3644 27.3993 48.3644 25.87C48.3644 24.32 48.5917 22.9767 49.0464 21.84C49.5217 20.6827 50.2037 19.7837 51.0924 19.143C52.0017 18.5023 53.0867 18.182 54.3474 18.182C55.484 18.182 56.5587 18.4713 57.5714 19.05C58.584 19.6287 59.4107 20.4863 60.0514 21.623C60.7127 22.739 61.0434 24.1547 61.0434 25.87ZM55.4014 25.87C55.4014 25.2293 55.267 24.692 54.9984 24.258C54.7297 23.8033 54.368 23.4623 53.9134 23.235C53.4587 23.0077 52.9524 22.894 52.3944 22.894C51.919 22.894 51.454 23.0077 50.9994 23.235C50.5654 23.4417 50.2037 23.762 49.9144 24.196C49.625 24.63 49.4804 25.188 49.4804 25.87C49.4804 26.552 49.625 27.11 49.9144 27.544C50.2037 27.978 50.5654 28.3087 50.9994 28.536C51.454 28.7427 51.919 28.846 52.3944 28.846C52.9524 28.846 53.4587 28.7323 53.9134 28.505C54.368 28.2777 54.7297 27.9367 54.9984 27.482C55.267 27.0273 55.4014 26.49 55.4014 25.87ZM68.076 28.536C68.076 28.846 68.1483 29.1147 68.293 29.342C68.4583 29.5487 68.6753 29.714 68.944 29.838C69.2127 29.9413 69.502 29.993 69.812 29.993C70.2667 29.993 70.7007 29.9 71.114 29.714C71.5273 29.5073 71.858 29.1973 72.106 28.784C72.3747 28.35 72.509 27.8127 72.509 27.172L73.005 29.032C73.005 29.9413 72.7673 30.7163 72.292 31.357C71.8373 31.9977 71.207 32.4833 70.401 32.814C69.6157 33.1447 68.7477 33.31 67.797 33.31C66.8877 33.31 66.0403 33.1447 65.255 32.814C64.4903 32.4627 63.8703 31.9563 63.395 31.295C62.9197 30.613 62.682 29.7863 62.682 28.815C62.682 27.451 63.1573 26.3763 64.108 25.591C65.0793 24.8057 66.4743 24.413 68.293 24.413C69.0783 24.413 69.812 24.4853 70.494 24.63C71.1967 24.7747 71.8063 24.971 72.323 25.219C72.8603 25.4463 73.2633 25.7047 73.532 25.994V28.257C73.1187 27.9057 72.602 27.637 71.982 27.451C71.362 27.265 70.711 27.172 70.029 27.172C69.5537 27.172 69.1713 27.2237 68.882 27.327C68.5927 27.4303 68.386 27.5853 68.262 27.792C68.138 27.978 68.076 28.226 68.076 28.536ZM65.472 23.421L63.767 19.918C64.6763 19.5253 65.72 19.1637 66.898 18.833C68.0967 18.4817 69.3677 18.306 70.711 18.306C72.013 18.306 73.1807 18.492 74.214 18.864C75.268 19.2153 76.0947 19.7423 76.694 20.445C77.314 21.1477 77.624 22.0053 77.624 23.018V33H72.509V24.289C72.509 23.979 72.4573 23.7 72.354 23.452C72.2713 23.204 72.1267 22.9973 71.92 22.832C71.7133 22.646 71.4447 22.5117 71.114 22.429C70.7833 22.3257 70.401 22.274 69.967 22.274C69.3677 22.274 68.7477 22.3463 68.107 22.491C67.487 22.6357 66.9393 22.801 66.464 22.987C65.9887 23.173 65.658 23.3177 65.472 23.421ZM86.2626 39.82H80.8996V18.74H86.2626V39.82ZM97.8256 25.87C97.8256 27.5647 97.4949 28.9803 96.8336 30.117C96.1929 31.2537 95.3663 32.1113 94.3536 32.69C93.3409 33.2687 92.2663 33.558 91.1296 33.558C89.8689 33.558 88.7839 33.2377 87.8746 32.597C86.9859 31.9563 86.3039 31.0573 85.8286 29.9C85.3739 28.7427 85.1466 27.3993 85.1466 25.87C85.1466 24.32 85.3739 22.9767 85.8286 21.84C86.3039 20.6827 86.9859 19.7837 87.8746 19.143C88.7839 18.5023 89.8689 18.182 91.1296 18.182C92.2663 18.182 93.3409 18.4713 94.3536 19.05C95.3663 19.6287 96.1929 20.4863 96.8336 21.623C97.4949 22.739 97.8256 24.1547 97.8256 25.87ZM92.1836 25.87C92.1836 25.2293 92.0493 24.692 91.7806 24.258C91.5119 23.8033 91.1503 23.4623 90.6956 23.235C90.2409 23.0077 89.7346 22.894 89.1766 22.894C88.7013 22.894 88.2363 23.0077 87.7816 23.235C87.3476 23.4417 86.9859 23.762 86.6966 24.196C86.4073 24.63 86.2626 25.188 86.2626 25.87C86.2626 26.552 86.4073 27.11 86.6966 27.544C86.9859 27.978 87.3476 28.3087 87.7816 28.536C88.2363 28.7427 88.7013 28.846 89.1766 28.846C89.7346 28.846 90.2409 28.7323 90.6956 28.505C91.1503 28.2777 91.5119 27.9367 91.7806 27.482C92.0493 27.0273 92.1836 26.49 92.1836 25.87ZM108.237 33.31C106.481 33.31 104.962 33.0103 103.68 32.411C102.42 31.791 101.448 30.9333 100.766 29.838C100.084 28.722 99.7432 27.3993 99.7432 25.87C99.7432 24.32 100.074 22.9973 100.735 21.902C101.397 20.786 102.347 19.9283 103.587 19.329C104.827 18.7297 106.315 18.43 108.051 18.43C109.787 18.43 111.244 18.709 112.422 19.267C113.6 19.825 114.499 20.6413 115.119 21.716C115.739 22.77 116.049 24.072 116.049 25.622C116.049 25.87 116.039 26.118 116.018 26.366C116.018 26.5933 116.008 26.8 115.987 26.986H102.688V24.227H111.089L109.942 25.653C110.046 25.4877 110.139 25.3017 110.221 25.095C110.304 24.8883 110.345 24.7127 110.345 24.568C110.345 23.9893 110.242 23.5037 110.035 23.111C109.849 22.6977 109.57 22.3877 109.198 22.181C108.847 21.9537 108.423 21.84 107.927 21.84C107.307 21.84 106.791 21.9847 106.377 22.274C105.964 22.5633 105.654 23.0077 105.447 23.607C105.241 24.1857 105.137 24.9297 105.137 25.839C105.117 26.645 105.22 27.327 105.447 27.885C105.675 28.443 106.005 28.877 106.439 29.187C106.873 29.4763 107.411 29.621 108.051 29.621C108.837 29.621 109.498 29.4867 110.035 29.218C110.593 28.9287 111.027 28.5153 111.337 27.978L116.173 28.939C115.409 30.4063 114.365 31.5017 113.042 32.225C111.74 32.9483 110.139 33.31 108.237 33.31ZM124.042 18.74V33H118.803V18.74H124.042ZM128.103 24.227C127.875 23.979 127.617 23.7827 127.328 23.638C127.059 23.4727 126.718 23.39 126.305 23.39C125.891 23.39 125.509 23.5037 125.158 23.731C124.806 23.9583 124.527 24.2993 124.321 24.754C124.135 25.2087 124.042 25.777 124.042 26.459L122.926 24.32C122.926 23.1833 123.153 22.1707 123.608 21.282C124.062 20.3933 124.662 19.6907 125.406 19.174C126.17 18.6367 126.966 18.368 127.793 18.368C128.309 18.368 128.805 18.492 129.281 18.74C129.756 18.9673 130.107 19.2567 130.335 19.608L128.103 24.227ZM132.99 27.575C133.858 28.2363 134.612 28.7323 135.253 29.063C135.893 29.3937 136.441 29.6107 136.896 29.714C137.35 29.8173 137.702 29.869 137.95 29.869C138.342 29.869 138.632 29.7863 138.818 29.621C139.004 29.4557 139.097 29.2283 139.097 28.939C139.097 28.691 139.014 28.4843 138.849 28.319C138.704 28.133 138.415 27.947 137.981 27.761C137.567 27.575 136.947 27.3477 136.121 27.079C135.439 26.8517 134.788 26.5727 134.168 26.242C133.548 25.8907 133.041 25.4257 132.649 24.847C132.277 24.2477 132.091 23.483 132.091 22.553C132.091 21.6643 132.328 20.9203 132.804 20.321C133.279 19.701 133.93 19.236 134.757 18.926C135.583 18.5953 136.544 18.43 137.64 18.43C138.487 18.43 139.272 18.523 139.996 18.709C140.74 18.8743 141.442 19.1017 142.104 19.391C142.765 19.6597 143.416 19.98 144.057 20.352L142.476 23.917C141.814 23.3383 141.07 22.8733 140.244 22.522C139.438 22.15 138.725 21.964 138.105 21.964C137.712 21.964 137.423 22.0363 137.237 22.181C137.071 22.3257 136.989 22.5013 136.989 22.708C136.989 22.9973 137.113 23.235 137.361 23.421C137.609 23.5863 137.981 23.7517 138.477 23.917C138.973 24.0823 139.603 24.3097 140.368 24.599C141.091 24.8677 141.752 25.1777 142.352 25.529C142.972 25.8597 143.468 26.2937 143.84 26.831C144.232 27.3683 144.429 28.0813 144.429 28.97C144.429 30.582 143.943 31.7703 142.972 32.535C142.021 33.2997 140.667 33.682 138.911 33.682C137.857 33.682 136.865 33.5787 135.935 33.372C135.025 33.1653 134.168 32.876 133.362 32.504C132.556 32.132 131.781 31.7083 131.037 31.233L132.99 27.575ZM152.417 27.42C152.417 28.164 152.541 28.7427 152.789 29.156C153.037 29.5487 153.502 29.745 154.184 29.745C154.638 29.745 155.021 29.6623 155.331 29.497C155.641 29.3317 155.878 29.0733 156.044 28.722C156.23 28.3707 156.323 27.9367 156.323 27.42V18.74H161.686V33H156.323V30.892C155.909 31.636 155.341 32.2353 154.618 32.69C153.915 33.124 153.026 33.341 151.952 33.341C150.092 33.341 148.769 32.876 147.984 31.946C147.198 30.9953 146.806 29.6727 146.806 27.978V18.74H152.417V27.42ZM187.504 23.762V33H182.141V24.32C182.141 23.576 182.017 23.0077 181.769 22.615C181.541 22.2017 181.149 21.995 180.591 21.995C180.26 21.995 179.96 22.0777 179.692 22.243C179.423 22.4083 179.216 22.6667 179.072 23.018C178.927 23.3487 178.855 23.7827 178.855 24.32V33H173.492V24.32C173.492 23.576 173.368 23.0077 173.12 22.615C172.892 22.2017 172.5 21.995 171.942 21.995C171.611 21.995 171.311 22.0777 171.043 22.243C170.774 22.4083 170.567 22.6667 170.423 23.018C170.278 23.3487 170.206 23.7827 170.206 24.32V33H165.091V18.74H170.206V20.879C170.598 20.1143 171.136 19.515 171.818 19.081C172.52 18.6263 173.378 18.399 174.391 18.399C175.527 18.399 176.416 18.5953 177.057 18.988C177.697 19.36 178.162 19.918 178.452 20.662C178.989 19.9593 179.64 19.4117 180.405 19.019C181.19 18.6057 182.068 18.399 183.04 18.399C184.197 18.399 185.096 18.616 185.737 19.05C186.377 19.4633 186.832 20.073 187.101 20.879C187.369 21.6643 187.504 22.6253 187.504 23.762Z" fill="black"/>
<circle cx="38" cy="14" r="4" fill="#007FFF"/>
<circle cx="193" cy="30" r="4" fill="#007FFF"/>
</svg>
